<svg viewBox="0 0 24 24" fill="none" xmlns="http://www.w3.org/2000/svg">
    <path
        d="M12.4053 7.66624C12.2553 7.83869 12.1119 8.06042 11.9887 8.29782C11.7424 8.7771 11.561 9.3191 11.4378 9.87453C11.1914 10.9876 11.1713 12.1635 11.3863 13.2788C11.4535 13.6237 11.5408 13.9619 11.6528 14.2934C11.8656 13.9238 12.0559 13.5364 12.2239 13.1422C12.4546 12.6024 12.6427 12.0425 12.7928 11.4759C12.9406 10.907 13.0503 10.3292 13.1018 9.75583C13.1287 9.46916 13.1422 9.18249 13.1354 8.90477C13.131 8.62481 13.1063 8.35157 13.0571 8.10297C13.0324 7.97979 13.0011 7.86109 12.963 7.75583C12.9249 7.65056 12.8801 7.56097 12.8376 7.49826C12.8264 7.48259 12.8174 7.46691 12.8062 7.45571C12.8017 7.44899 12.7973 7.44227 12.7905 7.43779C12.7861 7.43331 12.7816 7.42883 12.7771 7.42435C12.7681 7.41315 12.7592 7.41092 12.7525 7.40196C12.7502 7.39972 12.748 7.39972 12.7457 7.39748C12.7301 7.40196 12.6808 7.42212 12.6248 7.46243C12.5576 7.50723 12.4815 7.58113 12.4053 7.66624Z"
        fill="currentColor"></path>
    <path
        d="M21.0078 4.07385C20.9944 4.54641 20.9787 5.01674 20.9474 5.48931C20.9048 6.13209 20.8376 6.77262 20.757 7.41092C20.589 8.68752 20.3449 9.9574 19.9865 11.2026C19.8074 11.8253 19.6058 12.4434 19.3639 13.0504C19.2475 13.3549 19.1153 13.6551 18.9809 13.9552C18.8421 14.2531 18.6965 14.5487 18.5375 14.8398C18.2195 15.4199 17.8589 15.9865 17.4311 16.5196C17.2183 16.7861 16.9854 17.0437 16.7279 17.2878C16.4703 17.5297 16.1903 17.7603 15.8745 17.9597C15.5588 18.159 15.2071 18.3292 14.8152 18.4389C14.4255 18.5465 13.991 18.589 13.5655 18.5218L13.4064 18.4949C13.3527 18.4837 13.3012 18.4703 13.2497 18.4569C13.1444 18.4322 13.0459 18.3942 12.9451 18.3583C12.7502 18.2777 12.5621 18.1836 12.3941 18.0717C12.0537 17.8499 11.7693 17.5789 11.5319 17.2945C11.4759 17.2228 11.4176 17.1512 11.3617 17.0773L11.2743 16.9518C11.2698 16.9563 11.2653 16.9608 11.2609 16.9653C10.7793 17.4378 10.2284 17.8566 9.61249 18.1769C9.53634 18.2172 9.45795 18.2531 9.37956 18.2911C9.30118 18.327 9.22055 18.3606 9.13992 18.3964C8.9809 18.4614 8.81965 18.5218 8.65168 18.5733C8.4837 18.6271 8.30677 18.6719 8.12312 18.7055C7.93947 18.7413 7.74462 18.7592 7.53633 18.757C7.33028 18.7547 7.10856 18.7256 6.88907 18.6517C6.66959 18.58 6.45234 18.4546 6.2754 18.2979C6.09847 18.1411 5.95962 17.9574 5.85659 17.7715C5.75357 17.5856 5.68414 17.3998 5.62815 17.2183C5.52065 16.8533 5.48033 16.5061 5.45569 16.1657C5.43554 15.8275 5.43778 15.4961 5.45122 15.1713C5.48033 14.5218 5.55424 13.8925 5.63263 13.2698C5.71325 12.6472 5.80284 12.0336 5.87675 11.4288L5.90139 11.2026C5.91035 11.1243 5.91482 11.0593 5.92154 10.9876L5.9305 10.8824L5.93274 10.7794C5.93498 10.7099 5.93946 10.6405 5.93498 10.5733C5.93274 10.3045 5.89466 10.0448 5.82076 9.85438C5.78268 9.7648 5.73789 9.69537 5.69982 9.65953C5.66175 9.6237 5.63935 9.61026 5.5856 9.60354C5.53184 9.59682 5.44898 9.60801 5.35491 9.63713C5.30564 9.65728 5.25636 9.67297 5.20485 9.70209C5.17798 9.71552 5.15335 9.72672 5.12647 9.7424L5.04584 9.79166C4.83307 9.92604 4.6203 10.1097 4.42098 10.3113C4.21941 10.5151 4.02904 10.7368 3.84539 10.9697C3.48033 11.4378 3.14437 11.9462 2.81067 12.4658L2.80843 12.468C2.74572 12.5666 2.61358 12.5957 2.51504 12.533C2.43217 12.4815 2.39857 12.3807 2.42769 12.2911C2.52175 11.9888 2.62702 11.6864 2.75468 11.393C2.87786 11.0974 3.02343 10.8085 3.18245 10.5263C3.34594 10.2441 3.52736 9.97084 3.73788 9.70656C3.94841 9.44452 4.18581 9.19369 4.48593 8.9742L4.60015 8.89356C4.63823 8.86669 4.68302 8.8443 4.72333 8.81966C4.80396 8.76815 4.90026 8.72783 4.99209 8.68528C5.18694 8.60913 5.41314 8.55315 5.6707 8.56882C5.73565 8.57554 5.8006 8.58226 5.86555 8.59794C5.9305 8.61586 5.99545 8.63601 6.05816 8.6584C6.11863 8.68752 6.1791 8.71887 6.23733 8.75246C6.29333 8.7883 6.34259 8.83086 6.39411 8.87117C6.58896 9.04362 6.70766 9.2452 6.79501 9.43781C6.95402 9.82303 6.99882 10.1903 7.01449 10.5397C7.02121 10.6293 7.01897 10.7144 7.01673 10.7995L7.01449 10.9294L7.00777 11.0571C7.0033 11.1399 6.99881 11.2295 6.9921 11.3079L6.9697 11.5453C6.90923 12.1747 6.83308 12.7906 6.76813 13.402C6.70318 14.0134 6.64943 14.6181 6.63375 15.2094C6.62703 15.505 6.62927 15.7962 6.65167 16.0761C6.67407 16.3561 6.71662 16.6271 6.78829 16.8578C6.82412 16.972 6.86892 17.0773 6.91819 17.1624C6.96746 17.2475 7.02345 17.3124 7.07944 17.3594C7.13543 17.4065 7.19366 17.4401 7.26981 17.4625C7.34372 17.4849 7.43555 17.4983 7.53857 17.4983C7.95739 17.4961 8.5285 17.2833 9.0033 17.0325C9.48707 16.7727 9.93276 16.43 10.3337 16.0291C10.4232 15.9395 10.5106 15.8454 10.5957 15.7491C10.5554 15.6618 10.5151 15.5722 10.4792 15.4826C10.2172 14.8555 10.0291 14.2038 9.91036 13.5408C9.79166 12.8779 9.74686 12.206 9.76254 11.5364C9.78046 10.8667 9.86333 10.2015 10.0134 9.54531C10.1657 8.89133 10.3829 8.24631 10.7099 7.62369C10.8757 7.31237 11.0683 7.00554 11.3303 6.71215C11.4624 6.56657 11.6103 6.42099 11.7984 6.29109C11.9865 6.16343 12.2172 6.03802 12.5173 5.98874C12.6651 5.96411 12.8309 5.96635 12.9899 5.99323C13.1489 6.02458 13.2989 6.08281 13.4288 6.15672C13.4916 6.19479 13.552 6.2351 13.608 6.27765C13.6595 6.32021 13.7133 6.36501 13.7581 6.4098L13.8253 6.47923C13.8477 6.50386 13.8656 6.52626 13.8857 6.5509C13.9261 6.59793 13.9596 6.64719 13.9932 6.69647C14.1231 6.89132 14.2082 7.08393 14.2754 7.27206C14.3404 7.46019 14.3874 7.64385 14.421 7.82302C14.4882 8.1836 14.5128 8.53075 14.5173 8.87117C14.5218 9.21384 14.5016 9.54755 14.468 9.87901C14.4009 10.5397 14.271 11.1847 14.0985 11.8163C13.9261 12.4479 13.7088 13.0638 13.4468 13.664C13.1847 14.2643 12.8757 14.8466 12.5128 15.3998C12.4434 15.505 12.3717 15.6103 12.2978 15.7133L12.3605 15.8186L12.468 15.9843L12.5823 16.1411L12.701 16.2889C12.8622 16.4793 13.0392 16.636 13.2206 16.748C13.3101 16.8085 13.4042 16.8488 13.496 16.8846C13.5431 16.8981 13.5879 16.9182 13.6349 16.9272C13.6573 16.9317 13.6819 16.9406 13.7043 16.9429L13.776 16.9541C13.8701 16.9653 13.9664 16.9697 14.0649 16.9585C14.1635 16.9518 14.2642 16.9272 14.3673 16.8981C14.5733 16.8354 14.7838 16.7323 14.9921 16.5957C15.4065 16.3225 15.7917 15.9305 16.1321 15.4893C16.3023 15.2676 16.4636 15.0347 16.6136 14.7928C16.7637 14.5509 16.9025 14.2978 17.0369 14.0403C17.5655 13.0078 17.9529 11.8813 18.2374 10.7301C18.804 8.421 18.9563 5.9977 18.7995 3.61024V3.60575C18.7995 3.59456 18.7995 3.58112 18.7995 3.56993C18.7861 3.3706 18.7301 2.6651 18.6092 1.98425C16.7144 0.730046 14.4434 -7.62939e-05 11.9999 -7.62939e-05C5.37283 -7.62939e-05 -9.15527e-05 5.37283 -9.15527e-05 12C-9.15527e-05 18.6271 5.37283 24 11.9999 24C18.6271 24 24 18.6271 24 12C24.0112 8.96747 22.8757 6.19032 21.0078 4.07385Z"
        fill="currentColor"></path>
    <path
        d="M12.7387 7.39071C12.7387 7.39071 12.7366 7.39071 12.7387 7.39071C12.7324 7.3886 12.7345 7.39071 12.7387 7.39071Z"
        fill="currentColor"></path>
</svg>